<svg xmlns="http://www.w3.org/2000/svg" aria-hidden="true" style="position:absolute;width:0;height:0;overflow:hidden">
  <defs>
    <symbol id="icon-Frame-3" viewBox="0 0 32 32">
      <path fill="#e5e5e5" d="M0 0h32v32H0V0z" style="fill:var(--color1, #e5e5e5)"/>
      <path fill="#fff" d="M-1644-4405.333H276v4624h-1920v-4624z" style="fill:var(--color2, #fff)"/>
      <path fill="#2e2f42" d="M-1644-197.333H276v416h-1920v-416z" style="fill:var(--color3, #2e2f42)"/>
      <path fill="#4d5ae5" d="M-150.667-10.667H58.666a5.333 5.333 0 0 1 5.333 5.333v42.667a5.333 5.333 0 0 1-5.333 5.333h-209.333A5.333 5.333 0 0 1-156 37.333V-5.334a5.333 5.333 0 0 1 5.333-5.333z" style="fill:var(--color4, #4d5ae5)"/>
      <path fill="#fff" d="m32 2.667-32 15 10.227 3.156L26 8.5 14.002 21.988l.01.003-.012-.003v7.345l5.735-5.576L27 25.999l5-23.333z" style="fill:var(--color2, #fff)"/>
    </symbol>
  </defs>
</svg>
